/* XPM */
static char *kollision[] = {
/* columns rows colors chars-per-pixel */
"32 32 239 2 ",
"   c #235700",
".  c #265901",
"X  c #295D02",
"o  c #2B6704",
"O  c #2E6B05",
"+  c #326504",
"@  c #366904",
"#  c #396C05",
"$  c #386A0D",
"%  c #3D7206",
"&  c #3F7A07",
"*  c #467909",
"=  c #497C0B",
"-  c #3A035D",
";  c #3E0662",
":  c #3F0961",
">  c #47125E",
",  c #400B63",
"<  c #451264",
"1  c #4A1763",
"2  c #471769",
"3  c #4A1768",
"4  c #47196A",
"5  c #4A1C6B",
"6  c #4E0D74",
"7  c #54127A",
"8  c #532166",
"9  c #5C2A61",
"0  c #56286A",
"q  c #582A69",
"w  c #5C326E",
"e  c #4E2271",
"r  c #542C76",
"t  c #5C357B",
"y  c #5E3C7F",
"u  c #613165",
"i  c #623C77",
"p  c #623978",
"a  c #7D4A62",
"s  c #704368",
"d  c #73496E",
"f  c #7A4F6A",
"g  c #66457F",
"h  c #6E4978",
"j  c #704F7D",
"k  c #CB7C3C",
"l  c #8D5F5F",
"z  c #986B5F",
"x  c #AA7955",
"c  c #AA7B59",
"v  c #8D5F62",
"b  c #8D656C",
"n  c #90686B",
"m  c #81617D",
"M  c #86687F",
"N  c #99787A",
"B  c #3B800A",
"V  c #4E810B",
"C  c #51840C",
"Z  c #5A8D0E",
"A  c #4C9309",
"S  c #4C9C0C",
"D  c #5E9A0B",
"F  c #548616",
"G  c #649510",
"H  c #669812",
"J  c #6A9C12",
"K  c #5EB114",
"L  c #71A314",
"P  c #79AB16",
"I  c #62BC14",
"U  c #73A224",
"Y  c #69C416",
"T  c #7BE116",
"R  c #85AD15",
"E  c #8EAD14",
"W  c #86B217",
"Q  c #83B519",
"!  c #89BB1A",
"~  c #ABBC15",
"^  c #87B526",
"/  c #89B824",
"(  c #FFAA01",
")  c #FFB10D",
"_  c #FFB216",
"`  c #FFB718",
"'  c #D59239",
"]  c #E19D27",
"[  c #E08530",
"{  c #E3A12B",
"}  c #E9A128",
"|  c #EEAD2B",
" . c #F1AE25",
".. c #FFBD26",
"X. c #F6B629",
"o. c #E2A132",
"O. c #E7AB37",
"+. c #E8AB3E",
"@. c #F7B837",
"#. c #8FC11C",
"$. c #97C71E",
"%. c #98C71E",
"&. c #97C91E",
"*. c #9CCA1D",
"=. c #A5C319",
"-. c #ABC61C",
";. c #B4C11A",
":. c #85E71D",
">. c #A5D323",
",. c #ACD32D",
"<. c #ACCF3D",
"1. c #B5D53E",
"2. c #C7C61C",
"3. c #C9C621",
"4. c #C6CC28",
"5. c #B38356",
"6. c #AA8066",
"7. c #B98F64",
"8. c #B28968",
"9. c #A58377",
"0. c #BC9676",
"q. c #CD9444",
"w. c #C89249",
"e. c #CB984F",
"r. c #C59354",
"t. c #D8A24A",
"y. c #E3AF50",
"u. c #E8BB50",
"i. c #EDBA5A",
"p. c #CA9F63",
"a. c #96C042",
"s. c #B6D540",
"d. c #CFD343",
"f. c #C8D548",
"g. c #DFD44A",
"h. c #CBD650",
"j. c #CFD857",
"k. c #DBD155",
"l. c #DED558",
"z. c #FFCB42",
"x. c #E0D34A",
"c. c #FCD044",
"v. c #FED249",
"b. c #E0CE55",
"n. c #E5CE5C",
"m. c #FBC55B",
"M. c #FFC95A",
"N. c #E1D45E",
"B. c #FFD350",
"V. c #CDDD66",
"C. c #DEDB6C",
"Z. c #FCCF6A",
"A. c #FCDD65",
"S. c #F8D768",
"D. c #F9DA6B",
"F. c #F4C775",
"G. c #E1DD77",
"H. c #F9D07E",
"J. c #FBE573",
"K. c #FEEB77",
"L. c #FBE878",
"P. c #590D82",
"I. c #6A1C93",
"U. c #5F3F82",
"Y. c #603F82",
"T. c #6A2794",
"R. c #771AAB",
"E. c #7721A7",
"W. c #664685",
"Q. c #6D4F86",
"!. c #6C538D",
"~. c #735380",
"^. c #775A87",
"/. c #70558D",
"(. c #73588D",
"). c #7B5B91",
"_. c #7F6A93",
"`. c #9E3D81",
"'. c #812299",
"]. c #876780",
"[. c #816A8F",
"{. c #907180",
"}. c #92788C",
"|. c #8A43B2",
" X c #9718C9",
".X c #9416D4",
"XX c #9529CD",
"oX c #982DCF",
"OX c #9F39D4",
"+X c #AF16F0",
"@X c #AB36E4",
"#X c #AF24F4",
"$X c #B72DF9",
"%X c #BB34FC",
"&X c #BD3CFD",
"*X c #9B52C3",
"=X c #B14BE7",
"-X c #C044FD",
";X c #C552FD",
":X c #A28581",
">X c #A78D8E",
",X c #DFB488",
"<X c #FFDB82",
"1X c #F9D68F",
"2X c #E0C49B",
"3X c #F8D797",
"4X c #FADD9F",
"5X c #D6E380",
"6X c #FDF086",
"7X c #FEF58B",
"8X c #E9E297",
"9X c #F0E395",
"0X c #FAE69B",
"qX c #FEED99",
"wX c #FDF79D",
"eX c #E2C3BC",
"rX c #EEE7A0",
"tX c #F8E3AC",
"yX c #FAF4AD",
"uX c #F9E4B1",
"iX c #FAE5B8",
"pX c #FAEEBD",
"aX c #FAF4B3",
"sX c #FEF9B1",
"dX c #FEF8B8",
"fX c #F8E8C5",
"gX c #FAEBCE",
"hX c #FAF7C4",
"jX c #FAF4CC",
"kX c #FBF8CC",
"lX c #F7F4D3",
"zX c #FCFAD6",
"xX c #FBF4DB",
"cX c #FCFADD",
"vX c #FCFAE3",
"bX c #FDFCEB",
"nX c #FDFDF4",
"mX c #FFFEFC",
"MX c None",
/* pixels */
"MXMXMXMXMXMXMXMXMXMXMXMXMXMXMXMXMXMXMXMXMXMXMXMXMXMXMXMXMXMXMXMX",
"MXMXMXMXMXMXMXMXMXMXMXMXMXMXMXMXMXMXMXMXMXMXMXMXMXMXMXMXMXMXMXMX",
"MXMXMXMXMXMXMXMXMXMXMXMXMXMXMXMXMXMXMXMXMXMXMXMXMXMXMXMXMXMXMXMX",
"MXMXMXMXMXMXMXMXMX:.Y I T MXMXMXMXMXMXMXMXMXMXMXMXMXMXMXMXMXMXMX",
"MXMXMXMXMXMXMXK O         o A MXMXMXMXMXMXMXMXMXMXMXMXMXMXMXMXMX",
"MXMXMXMXMXMXB                 O MXMXMXMXMXMXMXMXMXMXMXMXMXMXMXMX",
"MXMXMXMXMXB           X + @ # # % MXMXMXMXMXMXMXMXMXMXMXMXMXMXMX",
"MXMXMXMXK         . @ % * = V C V MXMXMXMXMXMXMXMXMXMXMXMXMXMXMX",
"MXMXMXMXO       X # * C Z H J J J G MXMXMXMXMXuXMXMXMXMXMXMXMXMX",
"MXMXMX:.      . # = Z H L P ^ Q R R MXMXMXyXpXZ.( ( MXMXMXMXMXMX",
"MXMXMXY   .   + * Z J P Q ! $.<.=.~ MXMXtXfXH.( ( MXMXMXMXMXMXMX",
"MXMXMXI . . X % C G P ! %.>.,.V.4.2.MXiXgX1X( MXMXMXMXMXMXMXMXMX",
"MXMXMXT     $ = Z L ! %.,.s.f.G.k.g.hXxX4X_ ( MXMXMXMXMXMXMXMXMX",
"MXMXMXMXO   # F H P #.>.s.j.l.N.rXhXbXkXK.B.` ( MXMXMXMXMXMXMXMX",
"MXMXMXMXS   # C U a.&.,.h.l.n.9XbXbXzXdXK.v...( ( MXMXMXMXMXMXMX",
"MXMXMXMXMXO # C J / *.5XC.b.lXmXmXvXzXS.| ] ' k [ MXMXMXMXMXMXMX",
"MXMXMXMXMXMX* C J Q -.d.8XlXbXnXbXcXD. .{ q.x l a `.MXMXMXMXMXMX",
"MXMXMXMXMXMXMXD J E ;.3.g.aXbXvXwX6XX.F.t.8.{.~.p 0 '.MXMXMXMXMX",
"MXMXMXMXMXMXMXMXMXMXMXc.aXcXkXsX7XL.@.i.2X:X[.(.y r 3  XMXMXMXMX",
"MXMXMXMXMXMXMXMXMXMXMXyXzXkXqXA.L.J. .+.p.>X_.!.Y.r 2 P.+XMXMXMX",
"MXMXMXMXMXMXMXMXMXMXyXhXaX<X) } y.u.O.o.e.9.[.!.U.r 4 : #XMXMXMX",
"MXMXMXMXMXMXMXMXMXMXuX0Xz.( ( ,X0.7.r.q.w.6.].Q.y r 2 - XXMXMXMX",
"MXMXMXMXMXMXMXMXMX3Xm.M.( ( ( eX].}.N 6.5.c b j t e < - oX%XMXMX",
"MXMXMXMXMXMXMXMXMXMXMXMX( ( MXMX).(.^.m n z v d t 5 : - @X%XMXMX",
"MXMXMXMXMXMXMXMXMXMXMXMXMXMXMXMX|.y W.W.h f a s q 5 - 6 &X$XMXMX",
"MXMXMXMXMXMXMXMXMXMXMXMXMXMXMXMXMXT.r t r w u 9 8 1 , OX&XMXMXMX",
"MXMXMXMXMXMXMXMXMXMXMXMXMXMXMXMXMXMXR.e e 1 3 > < : *X-X%XMXMXMX",
"MXMXMXMXMXMXMXMXMXMXMXMXMXMXMXMXMXMXMX.XE.7 ; 7 I.=X;X%XMXMXMXMX",
"MXMXMXMXMXMXMXMXMXMXMXMXMXMXMXMXMXMXMXMXMX%X%X%X&X-X&XMXMXMXMXMX",
"MXMXMXMXMXMXMXMXMXMXMXMXMXMXMXMXMXMXMXMXMXMXMXMXMXMXMXMXMXMXMXMX",
"MXMXMXMXMXMXMXMXMXMXMXMXMXMXMXMXMXMXMXMXMXMXMXMXMXMXMXMXMXMXMXMX",
"MXMXMXMXMXMXMXMXMXMXMXMXMXMXMXMXMXMXMXMXMXMXMXMXMXMXMXMXMXMXMXMX"
};
